M48
METRIC,LZ,000.000
;FILE_FORMAT=3:3
;TYPE=PLATED
;Layer: PTH_Through
;EasyEDA v6.5.50, 2025-05-12 09:01:39
;467dd6194114452b8036c6a5a6649833,7003e7d2a7ba44f9b311faf21ea13ffe,10
;Gerber Generator version 0.2
;Holesize 1 = 0.310 mm
T01C0.310
;Holesize 2 = 0.901 mm
T02C0.901
;Holesize 3 = 1.199 mm
T03C1.199
%
G05
G90
T01
X055992Y097155
X056500Y112776
X056515Y111379
X056007Y095758
X093091Y099187
T02
X056515Y120142
X056515Y117602
X052451Y087757
X052451Y090297
X104423Y110236
X104423Y107696
T03
X015269Y111760
X030509Y111760
X030509Y111887
X045749Y111887
X015240Y104394
X030480Y104394
X030480Y104267
X045720Y104267
X064545Y104902
X079785Y104902
X073660Y081280
X088900Y081280
X091440Y081280
X106680Y081280
X052451Y084582
X067691Y084582
X056261Y123952
X071501Y123952
X104677Y114173
X119917Y114173
M30
