G04 Layer: TopSolderMaskLayer*
G04 EasyEDA v6.5.50, 2025-05-12 09:01:39*
G04 467dd6194114452b8036c6a5a6649833,7003e7d2a7ba44f9b311faf21ea13ffe,10*
G04 Gerber Generator version 0.2*
G04 Scale: 100 percent, Rotated: No, Reflected: No *
G04 Dimensions in millimeters *
G04 leading zeros omitted , absolute positions ,4 integer and 5 decimal *
%FSLAX45Y45*%
%MOMM*%

%AMMACRO1*4,1,8,-1.0211,-1.3007,-1.0508,-1.2708,-1.0508,1.271,-1.0211,1.3007,1.0208,1.3007,1.0508,1.271,1.0508,-1.2708,1.0208,-1.3007,-1.0211,-1.3007,0*%
%AMMACRO2*4,1,8,-0.4211,-0.9507,-0.4508,-0.9208,-0.4508,0.921,-0.4211,0.9507,0.4209,0.9507,0.4508,0.921,0.4508,-0.9208,0.4209,-0.9507,-0.4211,-0.9507,0*%
%ADD10C,1.5016*%
%ADD11C,1.7526*%
%ADD12C,1.9812*%
%ADD13C,1.9820*%
%ADD14MACRO1*%
%ADD15MACRO2*%
%ADD16O,1.9665949999999999X0.7315962*%
%ADD17O,0.0112X0.7315962*%

%LPD*%
D10*
G01*
X5651500Y12014200D03*
G01*
X5651500Y11760200D03*
D11*
G01*
X5245100Y8775700D03*
G01*
X5245100Y9029700D03*
G01*
X10442270Y11023600D03*
G01*
X10442270Y10769600D03*
D12*
G01*
X1526870Y11176000D03*
G01*
X3050870Y11176000D03*
G01*
X3050870Y11188700D03*
D13*
G01*
X4574895Y11188674D03*
D12*
G01*
X1524000Y10439400D03*
G01*
X3048000Y10439400D03*
G01*
X3048000Y10426700D03*
G01*
X4572000Y10426700D03*
G01*
X6454470Y10490200D03*
G01*
X7978470Y10490200D03*
G01*
X7366000Y8128000D03*
G01*
X8890000Y8128000D03*
G01*
X9144000Y8128000D03*
G01*
X10668000Y8128000D03*
G01*
X5245100Y8458200D03*
G01*
X6769100Y8458200D03*
G01*
X5626100Y12395200D03*
G01*
X7150100Y12395200D03*
G01*
X10467670Y11417300D03*
G01*
X11991670Y11417300D03*
D14*
G01*
X1471244Y12047016D03*
G01*
X2115896Y12047016D03*
D15*
G01*
X1731086Y12337008D03*
D16*
G01*
X5649950Y11277600D03*
G01*
X5649950Y11150600D03*
G01*
X5649950Y11023600D03*
G01*
X6186449Y11277600D03*
G01*
X6186449Y11150600D03*
G01*
X6186449Y11023600D03*
G01*
X6186449Y10896600D03*
G01*
X9323120Y10160000D03*
G01*
X9323120Y10033000D03*
G01*
X9323120Y9906000D03*
G01*
X9859619Y10160000D03*
G01*
X9859619Y10033000D03*
G01*
X9859619Y9906000D03*
G01*
X9859619Y9779000D03*
G01*
X6135649Y9842500D03*
G01*
X6135649Y9715500D03*
G01*
X6135649Y9588500D03*
G01*
X6135649Y9461500D03*
G01*
X5599150Y9842500D03*
G01*
X5599150Y9715500D03*
G01*
X5599150Y9588500D03*
M02*
