G04 Layer: BottomLayer*
G04 EasyEDA v6.5.50, 2025-05-12 09:01:39*
G04 467dd6194114452b8036c6a5a6649833,7003e7d2a7ba44f9b311faf21ea13ffe,10*
G04 Gerber Generator version 0.2*
G04 Scale: 100 percent, Rotated: No, Reflected: No *
G04 Dimensions in millimeters *
G04 leading zeros omitted , absolute positions ,4 integer and 5 decimal *
%FSLAX45Y45*%
%MOMM*%

%ADD10C,0.3000*%
%ADD11C,0.2540*%
%ADD12R,0.8000X0.9000*%
%ADD13R,0.8000X1.8000*%
%ADD14O,1.8649950000000002X0.6299962*%
%ADD15C,1.4000*%
%ADD16C,1.6510*%
%ADD17C,1.8796*%
%ADD18C,1.8800*%
%ADD19C,1.0000*%
%ADD20C,0.0162*%

%LPD*%
G36*
X804316Y6921500D02*
G01*
X800404Y6922262D01*
X797102Y6924497D01*
X764997Y6956602D01*
X762762Y6959904D01*
X762000Y6963816D01*
X762000Y13664184D01*
X761695Y13665707D01*
X761796Y13670127D01*
X763828Y13674140D01*
X767334Y13676884D01*
X771702Y13677849D01*
X880364Y13677493D01*
X884275Y13676731D01*
X887577Y13674496D01*
X889762Y13671194D01*
X890524Y13667282D01*
X889711Y13663422D01*
X887476Y13660119D01*
X883005Y13657427D01*
X869289Y13649909D01*
X856589Y13640765D01*
X845007Y13630198D01*
X834796Y13618362D01*
X826058Y13605357D01*
X818896Y13591438D01*
X813460Y13576757D01*
X809802Y13561568D01*
X807923Y13546023D01*
X807923Y13530376D01*
X809802Y13514832D01*
X813460Y13499642D01*
X818896Y13484961D01*
X826058Y13471042D01*
X834796Y13458037D01*
X845007Y13446201D01*
X856589Y13435634D01*
X869289Y13426490D01*
X883005Y13418972D01*
X897483Y13413079D01*
X912571Y13408964D01*
X928065Y13406628D01*
X943711Y13406170D01*
X959307Y13407542D01*
X974598Y13410793D01*
X989431Y13415772D01*
X1003553Y13422528D01*
X1016812Y13430859D01*
X1028953Y13440714D01*
X1039876Y13451992D01*
X1049375Y13464387D01*
X1057300Y13477900D01*
X1063599Y13492226D01*
X1068171Y13507161D01*
X1070965Y13522553D01*
X1071880Y13538200D01*
X1070965Y13553846D01*
X1068171Y13569238D01*
X1063599Y13584174D01*
X1057300Y13598499D01*
X1049375Y13612012D01*
X1039876Y13624407D01*
X1028953Y13635685D01*
X1016812Y13645540D01*
X1003553Y13653871D01*
X995324Y13657834D01*
X992174Y13660119D01*
X990142Y13663472D01*
X989533Y13667282D01*
X990396Y13671092D01*
X992632Y13674293D01*
X995883Y13676426D01*
X999693Y13677138D01*
X13312190Y13639850D01*
X13316051Y13639038D01*
X13319353Y13636853D01*
X13321538Y13633551D01*
X13322300Y13629690D01*
X13322300Y13530275D01*
X13321436Y13526211D01*
X13318998Y13522807D01*
X13315391Y13520674D01*
X13311225Y13520166D01*
X13307212Y13521385D01*
X13304062Y13524128D01*
X13295376Y13535507D01*
X13284454Y13546785D01*
X13272312Y13556640D01*
X13259054Y13564971D01*
X13244931Y13571728D01*
X13230098Y13576706D01*
X13214807Y13579957D01*
X13199211Y13581329D01*
X13183565Y13580872D01*
X13168071Y13578535D01*
X13152983Y13574420D01*
X13138505Y13568527D01*
X13124789Y13561009D01*
X13112089Y13551865D01*
X13100507Y13541298D01*
X13090296Y13529462D01*
X13081558Y13516457D01*
X13074396Y13502538D01*
X13068960Y13487857D01*
X13065302Y13472668D01*
X13063423Y13457123D01*
X13063423Y13441476D01*
X13065302Y13425932D01*
X13068960Y13410742D01*
X13074396Y13396061D01*
X13081558Y13382142D01*
X13090296Y13369137D01*
X13100507Y13357301D01*
X13112089Y13346734D01*
X13124789Y13337590D01*
X13138505Y13330072D01*
X13152983Y13324179D01*
X13168071Y13320064D01*
X13183565Y13317728D01*
X13199211Y13317270D01*
X13214807Y13318642D01*
X13230098Y13321893D01*
X13244931Y13326872D01*
X13259054Y13333628D01*
X13272312Y13341959D01*
X13284454Y13351814D01*
X13295376Y13363092D01*
X13304062Y13374471D01*
X13307212Y13377214D01*
X13311225Y13378434D01*
X13315391Y13377926D01*
X13318998Y13375792D01*
X13321436Y13372388D01*
X13322300Y13368324D01*
X13322300Y6935216D01*
X13322604Y6933641D01*
X13322503Y6929170D01*
X13320522Y6925208D01*
X13316966Y6922465D01*
X13312648Y6921500D01*
G37*

%LPC*%
G36*
X956411Y6979970D02*
G01*
X972007Y6981342D01*
X987298Y6984593D01*
X1002131Y6989572D01*
X1016253Y6996328D01*
X1029512Y7004659D01*
X1041653Y7014514D01*
X1052576Y7025792D01*
X1062075Y7038187D01*
X1070000Y7051700D01*
X1076299Y7066025D01*
X1080871Y7080961D01*
X1083665Y7096353D01*
X1084580Y7112000D01*
X1083665Y7127646D01*
X1080871Y7143038D01*
X1076299Y7157974D01*
X1070000Y7172299D01*
X1062075Y7185812D01*
X1052576Y7198207D01*
X1041653Y7209485D01*
X1029512Y7219340D01*
X1016253Y7227671D01*
X1002131Y7234428D01*
X987298Y7239406D01*
X972007Y7242657D01*
X956411Y7244029D01*
X940765Y7243572D01*
X925271Y7241235D01*
X910183Y7237120D01*
X895705Y7231227D01*
X881989Y7223709D01*
X869289Y7214565D01*
X857707Y7203998D01*
X847496Y7192162D01*
X838758Y7179157D01*
X831596Y7165238D01*
X826160Y7150557D01*
X822502Y7135368D01*
X820623Y7119823D01*
X820623Y7104176D01*
X822502Y7088631D01*
X826160Y7073442D01*
X831596Y7058761D01*
X838758Y7044842D01*
X847496Y7031837D01*
X857707Y7020001D01*
X869289Y7009434D01*
X881989Y7000290D01*
X895705Y6992772D01*
X910183Y6986879D01*
X925271Y6982764D01*
X940765Y6980428D01*
G37*
G36*
X13135711Y6979970D02*
G01*
X13151307Y6981342D01*
X13166598Y6984593D01*
X13181431Y6989572D01*
X13195554Y6996328D01*
X13208812Y7004659D01*
X13220954Y7014514D01*
X13231876Y7025792D01*
X13241375Y7038187D01*
X13249300Y7051700D01*
X13255599Y7066025D01*
X13260171Y7080961D01*
X13262965Y7096353D01*
X13263880Y7112000D01*
X13262965Y7127646D01*
X13260171Y7143038D01*
X13255599Y7157974D01*
X13249300Y7172299D01*
X13241375Y7185812D01*
X13231876Y7198207D01*
X13220954Y7209485D01*
X13208812Y7219340D01*
X13195554Y7227671D01*
X13181431Y7234428D01*
X13166598Y7239406D01*
X13151307Y7242657D01*
X13135711Y7244029D01*
X13120065Y7243572D01*
X13104571Y7241235D01*
X13089483Y7237120D01*
X13075005Y7231227D01*
X13061289Y7223709D01*
X13048589Y7214565D01*
X13037007Y7203998D01*
X13026796Y7192162D01*
X13018058Y7179157D01*
X13010896Y7165238D01*
X13005460Y7150557D01*
X13001802Y7135368D01*
X12999923Y7119823D01*
X12999923Y7104176D01*
X13001802Y7088631D01*
X13005460Y7073442D01*
X13010896Y7058761D01*
X13018058Y7044842D01*
X13026796Y7031837D01*
X13037007Y7020001D01*
X13048589Y7009434D01*
X13061289Y7000290D01*
X13075005Y6992772D01*
X13089483Y6986879D01*
X13104571Y6982764D01*
X13120065Y6980428D01*
G37*
G36*
X7366000Y8003540D02*
G01*
X7380986Y8004454D01*
X7395768Y8007146D01*
X7410145Y8011617D01*
X7423861Y8017764D01*
X7436713Y8025587D01*
X7448550Y8034832D01*
X7459167Y8045450D01*
X7468412Y8057286D01*
X7476236Y8070138D01*
X7482382Y8083854D01*
X7486853Y8098231D01*
X7489545Y8113014D01*
X7490459Y8128000D01*
X7489545Y8142986D01*
X7486853Y8157768D01*
X7482382Y8172145D01*
X7476236Y8185861D01*
X7468412Y8198713D01*
X7459167Y8210550D01*
X7448550Y8221167D01*
X7436713Y8230412D01*
X7423861Y8238236D01*
X7410145Y8244382D01*
X7395768Y8248853D01*
X7380986Y8251545D01*
X7366000Y8252459D01*
X7351014Y8251545D01*
X7336231Y8248853D01*
X7321854Y8244382D01*
X7308138Y8238236D01*
X7295286Y8230412D01*
X7283450Y8221167D01*
X7272832Y8210550D01*
X7263587Y8198713D01*
X7255764Y8185861D01*
X7249617Y8172145D01*
X7245146Y8157768D01*
X7242454Y8142986D01*
X7241540Y8128000D01*
X7242454Y8113014D01*
X7245146Y8098231D01*
X7249617Y8083854D01*
X7255764Y8070138D01*
X7263587Y8057286D01*
X7272832Y8045450D01*
X7283450Y8034832D01*
X7295286Y8025587D01*
X7308138Y8017764D01*
X7321854Y8011617D01*
X7336231Y8007146D01*
X7351014Y8004454D01*
G37*
G36*
X8890000Y8003540D02*
G01*
X8904986Y8004454D01*
X8919768Y8007146D01*
X8934145Y8011617D01*
X8947861Y8017764D01*
X8960713Y8025587D01*
X8972550Y8034832D01*
X8983167Y8045450D01*
X8992412Y8057286D01*
X9000236Y8070138D01*
X9006382Y8083854D01*
X9007297Y8086801D01*
X9009380Y8090509D01*
X9012834Y8093049D01*
X9017000Y8093964D01*
X9021165Y8093049D01*
X9024620Y8090509D01*
X9026702Y8086801D01*
X9027617Y8083854D01*
X9033764Y8070138D01*
X9041587Y8057286D01*
X9050832Y8045450D01*
X9061450Y8034832D01*
X9073286Y8025587D01*
X9086138Y8017764D01*
X9099854Y8011617D01*
X9114231Y8007146D01*
X9129014Y8004454D01*
X9144000Y8003540D01*
X9158986Y8004454D01*
X9173768Y8007146D01*
X9188145Y8011617D01*
X9201861Y8017764D01*
X9214713Y8025587D01*
X9226550Y8034832D01*
X9237167Y8045450D01*
X9246412Y8057286D01*
X9254236Y8070138D01*
X9260382Y8083854D01*
X9264853Y8098231D01*
X9267545Y8113014D01*
X9268460Y8128000D01*
X9267545Y8142986D01*
X9264853Y8157768D01*
X9260382Y8172145D01*
X9254236Y8185861D01*
X9246412Y8198713D01*
X9237167Y8210550D01*
X9226550Y8221167D01*
X9214713Y8230412D01*
X9201861Y8238236D01*
X9188145Y8244382D01*
X9173768Y8248853D01*
X9158986Y8251545D01*
X9144000Y8252459D01*
X9129014Y8251545D01*
X9114231Y8248853D01*
X9099854Y8244382D01*
X9086138Y8238236D01*
X9073286Y8230412D01*
X9061450Y8221167D01*
X9050832Y8210550D01*
X9041587Y8198713D01*
X9033764Y8185861D01*
X9027617Y8172145D01*
X9026702Y8169198D01*
X9024620Y8165490D01*
X9021165Y8162950D01*
X9017000Y8162036D01*
X9012834Y8162950D01*
X9009380Y8165490D01*
X9007297Y8169198D01*
X9006382Y8172145D01*
X9000236Y8185861D01*
X8992412Y8198713D01*
X8983167Y8210550D01*
X8972550Y8221167D01*
X8960713Y8230412D01*
X8947861Y8238236D01*
X8934145Y8244382D01*
X8919768Y8248853D01*
X8904986Y8251545D01*
X8890000Y8252459D01*
X8875014Y8251545D01*
X8860231Y8248853D01*
X8845854Y8244382D01*
X8832138Y8238236D01*
X8819286Y8230412D01*
X8807450Y8221167D01*
X8796832Y8210550D01*
X8787587Y8198713D01*
X8779764Y8185861D01*
X8773617Y8172145D01*
X8769146Y8157768D01*
X8766454Y8142986D01*
X8765540Y8128000D01*
X8766454Y8113014D01*
X8769146Y8098231D01*
X8773617Y8083854D01*
X8779764Y8070138D01*
X8787587Y8057286D01*
X8796832Y8045450D01*
X8807450Y8034832D01*
X8819286Y8025587D01*
X8832138Y8017764D01*
X8845854Y8011617D01*
X8860231Y8007146D01*
X8875014Y8004454D01*
G37*
G36*
X10721340Y8015782D02*
G01*
X10725861Y8017764D01*
X10738713Y8025587D01*
X10750550Y8034832D01*
X10761167Y8045450D01*
X10770412Y8057286D01*
X10778236Y8070138D01*
X10780217Y8074659D01*
X10721340Y8074659D01*
G37*
G36*
X10614660Y8015782D02*
G01*
X10614660Y8074659D01*
X10555782Y8074659D01*
X10557764Y8070138D01*
X10565587Y8057286D01*
X10574832Y8045450D01*
X10585450Y8034832D01*
X10597286Y8025587D01*
X10610138Y8017764D01*
G37*
G36*
X10555782Y8181340D02*
G01*
X10614660Y8181340D01*
X10614660Y8240217D01*
X10610138Y8238236D01*
X10597286Y8230412D01*
X10585450Y8221167D01*
X10574832Y8210550D01*
X10565587Y8198713D01*
X10557764Y8185861D01*
G37*
G36*
X10721340Y8181340D02*
G01*
X10780217Y8181340D01*
X10778236Y8185861D01*
X10770412Y8198713D01*
X10761167Y8210550D01*
X10750550Y8221167D01*
X10738713Y8230412D01*
X10725861Y8238236D01*
X10721340Y8240217D01*
G37*
G36*
X5245100Y8333740D02*
G01*
X5260086Y8334654D01*
X5274868Y8337346D01*
X5289245Y8341817D01*
X5302961Y8347964D01*
X5315813Y8355787D01*
X5327650Y8365032D01*
X5338267Y8375650D01*
X5347512Y8387486D01*
X5355336Y8400338D01*
X5361482Y8414054D01*
X5365953Y8428431D01*
X5368645Y8443214D01*
X5369560Y8458200D01*
X5368645Y8473186D01*
X5365953Y8487968D01*
X5361482Y8502345D01*
X5355336Y8516061D01*
X5347512Y8528913D01*
X5338267Y8540750D01*
X5327650Y8551367D01*
X5315813Y8560612D01*
X5302961Y8568436D01*
X5289245Y8574582D01*
X5274868Y8579053D01*
X5260086Y8581745D01*
X5245100Y8582660D01*
X5230114Y8581745D01*
X5215331Y8579053D01*
X5200954Y8574582D01*
X5187238Y8568436D01*
X5174386Y8560612D01*
X5162550Y8551367D01*
X5151932Y8540750D01*
X5142687Y8528913D01*
X5134864Y8516061D01*
X5128717Y8502345D01*
X5124246Y8487968D01*
X5121554Y8473186D01*
X5120640Y8458200D01*
X5121554Y8443214D01*
X5124246Y8428431D01*
X5128717Y8414054D01*
X5134864Y8400338D01*
X5142687Y8387486D01*
X5151932Y8375650D01*
X5162550Y8365032D01*
X5174386Y8355787D01*
X5187238Y8347964D01*
X5200954Y8341817D01*
X5215331Y8337346D01*
X5230114Y8334654D01*
G37*
G36*
X6769100Y8333740D02*
G01*
X6784086Y8334654D01*
X6798868Y8337346D01*
X6813245Y8341817D01*
X6826961Y8347964D01*
X6839813Y8355787D01*
X6851650Y8365032D01*
X6862267Y8375650D01*
X6871512Y8387486D01*
X6879336Y8400338D01*
X6885482Y8414054D01*
X6889953Y8428431D01*
X6892645Y8443214D01*
X6893559Y8458200D01*
X6892645Y8473186D01*
X6889953Y8487968D01*
X6885482Y8502345D01*
X6879336Y8516061D01*
X6871512Y8528913D01*
X6862267Y8540750D01*
X6851650Y8551367D01*
X6839813Y8560612D01*
X6826961Y8568436D01*
X6813245Y8574582D01*
X6798868Y8579053D01*
X6784086Y8581745D01*
X6769100Y8582660D01*
X6754114Y8581745D01*
X6739331Y8579053D01*
X6724954Y8574582D01*
X6711238Y8568436D01*
X6698386Y8560612D01*
X6686550Y8551367D01*
X6675932Y8540750D01*
X6666687Y8528913D01*
X6658864Y8516061D01*
X6652717Y8502345D01*
X6648246Y8487968D01*
X6645554Y8473186D01*
X6644640Y8458200D01*
X6645554Y8443214D01*
X6648246Y8428431D01*
X6652717Y8414054D01*
X6658864Y8400338D01*
X6666687Y8387486D01*
X6675932Y8375650D01*
X6686550Y8365032D01*
X6698386Y8355787D01*
X6711238Y8347964D01*
X6724954Y8341817D01*
X6739331Y8337346D01*
X6754114Y8334654D01*
G37*
G36*
X5245100Y8662670D02*
G01*
X5259578Y8663584D01*
X5273751Y8666378D01*
X5287518Y8670899D01*
X5300573Y8677198D01*
X5312714Y8685123D01*
X5323738Y8694521D01*
X5333492Y8705240D01*
X5341772Y8717127D01*
X5348478Y8729929D01*
X5353456Y8743543D01*
X5356707Y8757666D01*
X5358079Y8772093D01*
X5357622Y8786571D01*
X5355285Y8800846D01*
X5351170Y8814714D01*
X5345328Y8827973D01*
X5337810Y8840368D01*
X5328767Y8851696D01*
X5318353Y8861755D01*
X5306771Y8870442D01*
X5294122Y8877554D01*
X5280710Y8882989D01*
X5266690Y8886647D01*
X5252364Y8888526D01*
X5237835Y8888526D01*
X5223510Y8886647D01*
X5209489Y8882989D01*
X5196078Y8877554D01*
X5183428Y8870442D01*
X5171846Y8861755D01*
X5161432Y8851696D01*
X5152390Y8840368D01*
X5144871Y8827973D01*
X5139029Y8814714D01*
X5134914Y8800846D01*
X5132578Y8786571D01*
X5132120Y8772093D01*
X5133492Y8757666D01*
X5136743Y8743543D01*
X5141722Y8729929D01*
X5148427Y8717127D01*
X5156708Y8705240D01*
X5166461Y8694521D01*
X5177485Y8685123D01*
X5189626Y8677198D01*
X5202682Y8670899D01*
X5216448Y8666378D01*
X5230622Y8663584D01*
G37*
G36*
X5245100Y8916670D02*
G01*
X5259578Y8917584D01*
X5273751Y8920378D01*
X5287518Y8924899D01*
X5300573Y8931198D01*
X5312714Y8939123D01*
X5323738Y8948521D01*
X5333492Y8959240D01*
X5341772Y8971127D01*
X5348478Y8983929D01*
X5353456Y8997543D01*
X5356707Y9011666D01*
X5358079Y9026093D01*
X5357622Y9040571D01*
X5355285Y9054846D01*
X5351170Y9068714D01*
X5345328Y9081973D01*
X5337810Y9094368D01*
X5328767Y9105696D01*
X5318353Y9115755D01*
X5306771Y9124442D01*
X5294122Y9131554D01*
X5280710Y9136989D01*
X5266690Y9140647D01*
X5252364Y9142526D01*
X5237835Y9142526D01*
X5223510Y9140647D01*
X5209489Y9136989D01*
X5196078Y9131554D01*
X5183428Y9124442D01*
X5171846Y9115755D01*
X5161432Y9105696D01*
X5152390Y9094368D01*
X5144871Y9081973D01*
X5139029Y9068714D01*
X5134914Y9054846D01*
X5132578Y9040571D01*
X5132120Y9026093D01*
X5133492Y9011666D01*
X5136743Y8997543D01*
X5141722Y8983929D01*
X5148427Y8971127D01*
X5156708Y8959240D01*
X5166461Y8948521D01*
X5177485Y8939123D01*
X5189626Y8931198D01*
X5202682Y8924899D01*
X5216448Y8920378D01*
X5230622Y8917584D01*
G37*
G36*
X5652109Y9399473D02*
G01*
X5660491Y9399473D01*
X5671108Y9400387D01*
X5681014Y9402876D01*
X5690412Y9406991D01*
X5698947Y9412579D01*
X5706516Y9419539D01*
X5712764Y9427616D01*
X5717641Y9436608D01*
X5718606Y9439402D01*
X5652109Y9439402D01*
G37*
G36*
X5537809Y9399473D02*
G01*
X5546191Y9399473D01*
X5546191Y9439402D01*
X5479694Y9439402D01*
X5480659Y9436608D01*
X5485536Y9427616D01*
X5491784Y9419539D01*
X5499354Y9412579D01*
X5507888Y9406991D01*
X5517286Y9402876D01*
X5527192Y9400387D01*
G37*
G36*
X5479694Y9483598D02*
G01*
X5546191Y9483598D01*
X5546191Y9496806D01*
X5547004Y9500819D01*
X5549290Y9504172D01*
X5552744Y9506305D01*
X5556808Y9506966D01*
X5560720Y9505950D01*
X5571286Y9500870D01*
X5582767Y9497314D01*
X5594705Y9495536D01*
X5606694Y9495536D01*
X5618632Y9497314D01*
X5630113Y9500870D01*
X5637580Y9504476D01*
X5641492Y9505492D01*
X5645556Y9504832D01*
X5649010Y9502648D01*
X5651296Y9499295D01*
X5652109Y9495332D01*
X5652109Y9483598D01*
X5718606Y9483598D01*
X5717641Y9486392D01*
X5712764Y9495383D01*
X5706516Y9503460D01*
X5698947Y9510420D01*
X5693562Y9513925D01*
X5690565Y9516973D01*
X5689092Y9521037D01*
X5689396Y9525355D01*
X5691479Y9529114D01*
X5694934Y9531654D01*
X5699150Y9532569D01*
X5856325Y9532620D01*
X5864606Y9533788D01*
X5872124Y9536328D01*
X5879084Y9540189D01*
X5885586Y9545574D01*
X5924499Y9584537D01*
X5929477Y9591192D01*
X5933033Y9598304D01*
X5935218Y9605975D01*
X5936030Y9614357D01*
X5936030Y11077702D01*
X5936792Y11081562D01*
X5938977Y11084864D01*
X5948426Y11094313D01*
X5953810Y11100816D01*
X5957671Y11107775D01*
X5960211Y11115294D01*
X5961329Y11123218D01*
X5960973Y11131143D01*
X5959144Y11138916D01*
X5955893Y11146180D01*
X5951423Y11152784D01*
X5945784Y11158423D01*
X5939180Y11162893D01*
X5931916Y11166144D01*
X5924042Y11167973D01*
X5917844Y11168430D01*
X5732424Y11168430D01*
X5728970Y11169040D01*
X5725871Y11170767D01*
X5723636Y11173510D01*
X5717997Y11183213D01*
X5710478Y11192662D01*
X5701487Y11200993D01*
X5699048Y11204397D01*
X5698236Y11208461D01*
X5699048Y11212525D01*
X5701487Y11215928D01*
X5708954Y11222837D01*
X5716473Y11232286D01*
X5722467Y11242700D01*
X5726887Y11253876D01*
X5729579Y11265611D01*
X5730443Y11277600D01*
X5729579Y11289588D01*
X5726887Y11301323D01*
X5722467Y11312499D01*
X5716473Y11322913D01*
X5708954Y11332362D01*
X5697778Y11342776D01*
X5696254Y11345722D01*
X5695696Y11348974D01*
X5696204Y11501374D01*
X5696966Y11505234D01*
X5699201Y11508536D01*
X5702452Y11510721D01*
X5706364Y11511483D01*
X6398818Y11511483D01*
X6402679Y11510721D01*
X6405981Y11508536D01*
X6408166Y11505234D01*
X6408978Y11501323D01*
X6408978Y10612526D01*
X6408216Y10608716D01*
X6406134Y10605516D01*
X6402984Y10603280D01*
X6396634Y10600436D01*
X6383782Y10592612D01*
X6371945Y10583367D01*
X6361277Y10572750D01*
X6352032Y10560913D01*
X6344259Y10548061D01*
X6338062Y10534345D01*
X6333591Y10519968D01*
X6330899Y10505186D01*
X6329984Y10490200D01*
X6330899Y10475214D01*
X6333591Y10460431D01*
X6338062Y10446054D01*
X6344259Y10432338D01*
X6352032Y10419486D01*
X6361277Y10407650D01*
X6371945Y10397032D01*
X6383782Y10387787D01*
X6396634Y10379964D01*
X6410350Y10373817D01*
X6424676Y10369346D01*
X6439458Y10366654D01*
X6454444Y10365740D01*
X6469481Y10366654D01*
X6484264Y10369346D01*
X6498590Y10373817D01*
X6512306Y10379964D01*
X6525158Y10387787D01*
X6536994Y10397032D01*
X6547612Y10407650D01*
X6556908Y10419486D01*
X6564680Y10432338D01*
X6570827Y10446054D01*
X6575298Y10460431D01*
X6578041Y10475214D01*
X6578955Y10490200D01*
X6578041Y10505186D01*
X6575298Y10519968D01*
X6570827Y10534345D01*
X6564680Y10548061D01*
X6556908Y10560913D01*
X6547612Y10572750D01*
X6536994Y10583367D01*
X6525158Y10592612D01*
X6512306Y10600436D01*
X6505956Y10603280D01*
X6502806Y10605516D01*
X6500723Y10608716D01*
X6499961Y10612526D01*
X6499961Y11486032D01*
X6500774Y11489893D01*
X6502958Y11493195D01*
X6534251Y11524488D01*
X6539890Y11531295D01*
X6544005Y11538661D01*
X6546646Y11546586D01*
X6547815Y11554917D01*
X6547408Y11563299D01*
X6545529Y11571427D01*
X6542125Y11579098D01*
X6537401Y11586057D01*
X6531457Y11592001D01*
X6524498Y11596725D01*
X6516827Y11600129D01*
X6508546Y11602059D01*
X6502044Y11602516D01*
X5706719Y11602516D01*
X5702808Y11603278D01*
X5699506Y11605514D01*
X5697321Y11608816D01*
X5696559Y11612676D01*
X5696712Y11664696D01*
X5697321Y11668099D01*
X5699048Y11671147D01*
X5701690Y11673382D01*
X5708345Y11677345D01*
X5718911Y11685676D01*
X5728258Y11695328D01*
X5736183Y11706148D01*
X5742635Y11717883D01*
X5747461Y11730431D01*
X5750610Y11743486D01*
X5751931Y11756847D01*
X5751474Y11770258D01*
X5749239Y11783517D01*
X5745276Y11796318D01*
X5739638Y11808510D01*
X5732373Y11819788D01*
X5723737Y11830050D01*
X5713780Y11839041D01*
X5702706Y11846661D01*
X5690717Y11852706D01*
X5678068Y11857126D01*
X5664911Y11859768D01*
X5651500Y11860682D01*
X5638088Y11859768D01*
X5624931Y11857126D01*
X5612282Y11852706D01*
X5600293Y11846661D01*
X5589219Y11839041D01*
X5579262Y11830050D01*
X5570626Y11819788D01*
X5563362Y11808510D01*
X5557723Y11796318D01*
X5553760Y11783517D01*
X5551525Y11770258D01*
X5551068Y11756847D01*
X5552440Y11743486D01*
X5555538Y11730431D01*
X5560364Y11717883D01*
X5566816Y11706148D01*
X5574741Y11695328D01*
X5584088Y11685676D01*
X5594654Y11677345D01*
X5600700Y11673738D01*
X5603392Y11671503D01*
X5605119Y11668455D01*
X5605678Y11665000D01*
X5604713Y11349177D01*
X5604154Y11345976D01*
X5602630Y11343081D01*
X5590997Y11332362D01*
X5583478Y11322913D01*
X5577484Y11312499D01*
X5573064Y11301323D01*
X5570372Y11289588D01*
X5569508Y11277600D01*
X5570372Y11265611D01*
X5573064Y11253876D01*
X5577484Y11242700D01*
X5583478Y11232286D01*
X5590997Y11222837D01*
X5599988Y11214506D01*
X5602427Y11211102D01*
X5603240Y11207038D01*
X5602427Y11202974D01*
X5599988Y11199571D01*
X5592521Y11192662D01*
X5585002Y11183213D01*
X5579008Y11172799D01*
X5574588Y11161623D01*
X5571896Y11149888D01*
X5571032Y11137900D01*
X5571896Y11125911D01*
X5574588Y11114176D01*
X5579008Y11103000D01*
X5585002Y11092586D01*
X5592521Y11083137D01*
X5601309Y11074958D01*
X5611266Y11068202D01*
X5622086Y11062970D01*
X5633567Y11059414D01*
X5645505Y11057636D01*
X5657494Y11057636D01*
X5669432Y11059414D01*
X5680913Y11062970D01*
X5691733Y11068202D01*
X5701690Y11074958D01*
X5706313Y11079276D01*
X5709513Y11081308D01*
X5713222Y11081969D01*
X5839409Y11081969D01*
X5843320Y11081207D01*
X5846622Y11079022D01*
X5848807Y11075720D01*
X5849569Y11071809D01*
X5849569Y9635998D01*
X5848807Y9632137D01*
X5846622Y9628835D01*
X5839764Y9621977D01*
X5836462Y9619792D01*
X5832602Y9619030D01*
X5673801Y9619030D01*
X5670804Y9619437D01*
X5668060Y9620758D01*
X5665825Y9622840D01*
X5659678Y9630562D01*
X5650687Y9638944D01*
X5648248Y9642297D01*
X5647436Y9646361D01*
X5648248Y9650425D01*
X5650687Y9653828D01*
X5658154Y9660737D01*
X5665622Y9670186D01*
X5671667Y9680600D01*
X5676036Y9691776D01*
X5678728Y9703511D01*
X5679643Y9715500D01*
X5678728Y9727488D01*
X5676036Y9739223D01*
X5671667Y9750399D01*
X5665622Y9760813D01*
X5658154Y9770262D01*
X5649315Y9778441D01*
X5639409Y9785197D01*
X5628538Y9790430D01*
X5617057Y9793986D01*
X5605170Y9795764D01*
X5593130Y9795764D01*
X5581243Y9793986D01*
X5569762Y9790430D01*
X5558891Y9785197D01*
X5548985Y9778441D01*
X5540146Y9770262D01*
X5533999Y9762540D01*
X5531764Y9760458D01*
X5529072Y9759137D01*
X5526074Y9758730D01*
X3101390Y9758730D01*
X3097479Y9759492D01*
X3094177Y9761677D01*
X3091992Y9764979D01*
X3091230Y9768890D01*
X3091230Y10303306D01*
X3091942Y10307116D01*
X3094024Y10310368D01*
X3097174Y10312603D01*
X3105861Y10316464D01*
X3118713Y10324287D01*
X3130550Y10333532D01*
X3141167Y10344150D01*
X3150412Y10355986D01*
X3158236Y10368838D01*
X3164382Y10382554D01*
X3168853Y10396931D01*
X3171545Y10411714D01*
X3172460Y10426700D01*
X3172104Y10433659D01*
X3172460Y10439400D01*
X3171545Y10454386D01*
X3168853Y10469168D01*
X3164382Y10483545D01*
X3158236Y10497261D01*
X3150412Y10510113D01*
X3141167Y10521950D01*
X3130550Y10532567D01*
X3118713Y10541812D01*
X3105861Y10549636D01*
X3092145Y10555782D01*
X3077768Y10560253D01*
X3062986Y10562945D01*
X3048000Y10563860D01*
X3033014Y10562945D01*
X3018231Y10560253D01*
X3003854Y10555782D01*
X2990138Y10549636D01*
X2977286Y10541812D01*
X2965450Y10532567D01*
X2954832Y10521950D01*
X2945587Y10510113D01*
X2937764Y10497261D01*
X2931617Y10483545D01*
X2927146Y10469168D01*
X2924454Y10454386D01*
X2923540Y10439400D01*
X2923895Y10432440D01*
X2923540Y10426700D01*
X2924454Y10411714D01*
X2927146Y10396931D01*
X2931617Y10382554D01*
X2937764Y10368838D01*
X2945587Y10355986D01*
X2954832Y10344150D01*
X2965450Y10333532D01*
X2977286Y10324287D01*
X2990138Y10316464D01*
X2998825Y10312603D01*
X3001975Y10310368D01*
X3004058Y10307116D01*
X3004769Y10303306D01*
X3004769Y9715754D01*
X3004972Y9711537D01*
X3005531Y9707575D01*
X3006445Y9703663D01*
X3007715Y9699904D01*
X3009341Y9696246D01*
X3011271Y9692741D01*
X3013506Y9689490D01*
X3016097Y9686391D01*
X3018891Y9683597D01*
X3021990Y9681006D01*
X3025241Y9678771D01*
X3028746Y9676841D01*
X3032404Y9675215D01*
X3036163Y9673945D01*
X3040075Y9673031D01*
X3044037Y9672472D01*
X3048254Y9672269D01*
X5526074Y9672269D01*
X5529072Y9671862D01*
X5531764Y9670542D01*
X5533999Y9668459D01*
X5540146Y9660737D01*
X5549188Y9652355D01*
X5551576Y9649002D01*
X5552440Y9644938D01*
X5551576Y9640874D01*
X5549188Y9637471D01*
X5541721Y9630562D01*
X5534202Y9621113D01*
X5528208Y9610699D01*
X5523788Y9599523D01*
X5521096Y9587788D01*
X5520232Y9575800D01*
X5521096Y9563811D01*
X5523788Y9552076D01*
X5528208Y9540900D01*
X5530545Y9536785D01*
X5531764Y9533280D01*
X5531662Y9529572D01*
X5530240Y9526117D01*
X5527649Y9523425D01*
X5524246Y9521901D01*
X5517286Y9520123D01*
X5507888Y9516008D01*
X5499354Y9510420D01*
X5491784Y9503460D01*
X5485536Y9495383D01*
X5480659Y9486392D01*
G37*
G36*
X9376105Y9716973D02*
G01*
X9384436Y9716973D01*
X9395053Y9717887D01*
X9405010Y9720376D01*
X9414357Y9724491D01*
X9422942Y9730079D01*
X9430461Y9737039D01*
X9436760Y9745116D01*
X9441637Y9754108D01*
X9442602Y9756902D01*
X9376105Y9756902D01*
G37*
G36*
X9261805Y9716973D02*
G01*
X9270136Y9716973D01*
X9270136Y9756902D01*
X9203639Y9756902D01*
X9204604Y9754108D01*
X9209481Y9745116D01*
X9215780Y9737039D01*
X9223298Y9730079D01*
X9231884Y9724491D01*
X9241231Y9720376D01*
X9251188Y9717887D01*
G37*
G36*
X9376105Y9801098D02*
G01*
X9442602Y9801098D01*
X9441637Y9803892D01*
X9436760Y9812883D01*
X9430461Y9820960D01*
X9422942Y9827920D01*
X9414357Y9833508D01*
X9405010Y9837623D01*
X9395053Y9840112D01*
X9384436Y9841026D01*
X9376105Y9841026D01*
G37*
G36*
X9203639Y9801098D02*
G01*
X9270136Y9801098D01*
X9270136Y9832949D01*
X9270847Y9836658D01*
X9272879Y9839858D01*
X9275876Y9842093D01*
X9279534Y9843109D01*
X9283293Y9842652D01*
X9291167Y9840214D01*
X9303105Y9838436D01*
X9315094Y9838436D01*
X9327032Y9840214D01*
X9338513Y9843770D01*
X9349333Y9849002D01*
X9360154Y9856470D01*
X9368078Y9863937D01*
X9375597Y9873386D01*
X9381591Y9883800D01*
X9386011Y9894976D01*
X9388703Y9906711D01*
X9389567Y9918700D01*
X9388703Y9930688D01*
X9386011Y9942423D01*
X9381591Y9953599D01*
X9375597Y9964013D01*
X9368078Y9973462D01*
X9359290Y9981641D01*
X9349333Y9988397D01*
X9338513Y9993630D01*
X9327032Y9997186D01*
X9315094Y9998964D01*
X9303105Y9998964D01*
X9291167Y9997186D01*
X9279686Y9993630D01*
X9268866Y9988397D01*
X9258909Y9981641D01*
X9250121Y9973462D01*
X9245803Y9968026D01*
X9243568Y9965994D01*
X9240824Y9964674D01*
X9237827Y9964216D01*
X8964472Y9964166D01*
X8955786Y9962946D01*
X8947708Y9960254D01*
X8942374Y9957409D01*
X8937244Y9953548D01*
X8934348Y9952024D01*
X8931097Y9951516D01*
X8386876Y9951516D01*
X8382965Y9952278D01*
X8379663Y9954463D01*
X8377478Y9957765D01*
X8376716Y9961676D01*
X8376716Y10379405D01*
X8377580Y10383520D01*
X8380069Y10386923D01*
X8383676Y10389057D01*
X8387842Y10389514D01*
X8389975Y10389311D01*
X8403132Y10389311D01*
X8403132Y10435945D01*
X8381796Y10435945D01*
X8378291Y10436606D01*
X8375192Y10438384D01*
X8372957Y10441178D01*
X8368639Y10448848D01*
X8364677Y10453878D01*
X8362848Y10455808D01*
X8360714Y10459059D01*
X8360003Y10462869D01*
X8360003Y10483494D01*
X8360765Y10487355D01*
X8362950Y10490657D01*
X8366252Y10492892D01*
X8370163Y10493654D01*
X8403132Y10493654D01*
X8403132Y10540288D01*
X8389975Y10540288D01*
X8383524Y10539679D01*
X8377783Y10537952D01*
X8372551Y10535107D01*
X8367318Y10530586D01*
X8363813Y10527893D01*
X8359444Y10526877D01*
X8355126Y10527893D01*
X8346389Y10535107D01*
X8341156Y10537952D01*
X8335416Y10539679D01*
X8328964Y10540288D01*
X8249970Y10540288D01*
X8243519Y10539679D01*
X8237829Y10537952D01*
X8233562Y10536021D01*
X8231124Y10535716D01*
X8100822Y10535716D01*
X8097012Y10536428D01*
X8093760Y10538561D01*
X8091525Y10541711D01*
X8088680Y10548061D01*
X8080908Y10560913D01*
X8071612Y10572750D01*
X8060994Y10583367D01*
X8049158Y10592612D01*
X8036306Y10600436D01*
X8022590Y10606582D01*
X8008264Y10611053D01*
X7993481Y10613745D01*
X7978444Y10614660D01*
X7963458Y10613745D01*
X7948675Y10611053D01*
X7934350Y10606582D01*
X7920634Y10600436D01*
X7907781Y10592612D01*
X7895945Y10583367D01*
X7885277Y10572750D01*
X7876031Y10560913D01*
X7868259Y10548061D01*
X7862062Y10534345D01*
X7857591Y10519968D01*
X7854899Y10505186D01*
X7853984Y10490200D01*
X7854899Y10475214D01*
X7857591Y10460431D01*
X7862062Y10446054D01*
X7868259Y10432338D01*
X7876031Y10419486D01*
X7885277Y10407650D01*
X7895945Y10397032D01*
X7907781Y10387787D01*
X7920634Y10379964D01*
X7934350Y10373817D01*
X7948675Y10369346D01*
X7963458Y10366654D01*
X7978444Y10365740D01*
X7993481Y10366654D01*
X8008264Y10369346D01*
X8022590Y10373817D01*
X8036306Y10379964D01*
X8049158Y10387787D01*
X8060994Y10397032D01*
X8071612Y10407650D01*
X8080908Y10419486D01*
X8088680Y10432338D01*
X8091525Y10438688D01*
X8093760Y10441838D01*
X8097012Y10443972D01*
X8100822Y10444683D01*
X8208822Y10444683D01*
X8212683Y10443921D01*
X8215985Y10441736D01*
X8218220Y10438434D01*
X8218982Y10434523D01*
X8218982Y10420299D01*
X8219592Y10413847D01*
X8221319Y10408158D01*
X8224164Y10402874D01*
X8227923Y10398252D01*
X8232546Y10394492D01*
X8237829Y10391648D01*
X8243519Y10389920D01*
X8249970Y10389311D01*
X8275523Y10389311D01*
X8279434Y10388498D01*
X8282736Y10386314D01*
X8284921Y10383012D01*
X8285683Y10379151D01*
X8285683Y9906254D01*
X8285886Y9901783D01*
X8286496Y9897618D01*
X8287461Y9893554D01*
X8288781Y9889540D01*
X8290458Y9885730D01*
X8292541Y9882073D01*
X8294878Y9878568D01*
X8297570Y9875367D01*
X8300567Y9872370D01*
X8303768Y9869678D01*
X8307273Y9867341D01*
X8310930Y9865258D01*
X8314740Y9863582D01*
X8318753Y9862261D01*
X8322818Y9861296D01*
X8326983Y9860686D01*
X8331453Y9860483D01*
X8955227Y9860534D01*
X8963914Y9861753D01*
X8971991Y9864445D01*
X8977325Y9867290D01*
X8982456Y9871151D01*
X8985351Y9872675D01*
X8988602Y9873183D01*
X9237827Y9873183D01*
X9240824Y9872726D01*
X9243568Y9871405D01*
X9245803Y9869373D01*
X9250121Y9863937D01*
X9256877Y9857689D01*
X9259366Y9854133D01*
X9260128Y9849815D01*
X9259062Y9845649D01*
X9256318Y9842296D01*
X9252407Y9840366D01*
X9241231Y9837623D01*
X9231884Y9833508D01*
X9223298Y9827920D01*
X9215780Y9820960D01*
X9209481Y9812883D01*
X9204604Y9803892D01*
G37*
G36*
X4625340Y10314482D02*
G01*
X4629861Y10316464D01*
X4642713Y10324287D01*
X4654550Y10333532D01*
X4665167Y10344150D01*
X4674412Y10355986D01*
X4682236Y10368838D01*
X4684217Y10373360D01*
X4625340Y10373360D01*
G37*
G36*
X4518660Y10314482D02*
G01*
X4518660Y10373360D01*
X4459782Y10373360D01*
X4461764Y10368838D01*
X4469587Y10355986D01*
X4478832Y10344150D01*
X4489450Y10333532D01*
X4501286Y10324287D01*
X4514138Y10316464D01*
G37*
G36*
X1524000Y10314940D02*
G01*
X1538986Y10315854D01*
X1553768Y10318546D01*
X1568145Y10323017D01*
X1581861Y10329164D01*
X1594713Y10336987D01*
X1606550Y10346232D01*
X1617167Y10356850D01*
X1626412Y10368686D01*
X1634236Y10381538D01*
X1640382Y10395254D01*
X1644853Y10409631D01*
X1647545Y10424414D01*
X1648460Y10439400D01*
X1647545Y10454386D01*
X1644853Y10469168D01*
X1640382Y10483545D01*
X1634236Y10497261D01*
X1626412Y10510113D01*
X1617167Y10521950D01*
X1606550Y10532567D01*
X1594713Y10541812D01*
X1581861Y10549636D01*
X1568145Y10555782D01*
X1553768Y10560253D01*
X1538986Y10562945D01*
X1524000Y10563860D01*
X1509014Y10562945D01*
X1494231Y10560253D01*
X1479854Y10555782D01*
X1466138Y10549636D01*
X1453286Y10541812D01*
X1441450Y10532567D01*
X1430832Y10521950D01*
X1421587Y10510113D01*
X1413764Y10497261D01*
X1407617Y10483545D01*
X1403146Y10469168D01*
X1400454Y10454386D01*
X1399540Y10439400D01*
X1400454Y10424414D01*
X1403146Y10409631D01*
X1407617Y10395254D01*
X1413764Y10381538D01*
X1421587Y10368686D01*
X1430832Y10356850D01*
X1441450Y10346232D01*
X1453286Y10336987D01*
X1466138Y10329164D01*
X1479854Y10323017D01*
X1494231Y10318546D01*
X1509014Y10315854D01*
G37*
G36*
X8455812Y10389311D02*
G01*
X8468969Y10389311D01*
X8475421Y10389920D01*
X8481110Y10391648D01*
X8486394Y10394492D01*
X8491016Y10398252D01*
X8494776Y10402874D01*
X8497620Y10408158D01*
X8499348Y10413847D01*
X8499957Y10420299D01*
X8499957Y10435945D01*
X8455812Y10435945D01*
G37*
G36*
X4459782Y10480040D02*
G01*
X4518660Y10480040D01*
X4518660Y10538917D01*
X4514138Y10536936D01*
X4501286Y10529112D01*
X4489450Y10519867D01*
X4478832Y10509250D01*
X4469587Y10497413D01*
X4461764Y10484561D01*
G37*
G36*
X4625340Y10480040D02*
G01*
X4684217Y10480040D01*
X4682236Y10484561D01*
X4674412Y10497413D01*
X4665167Y10509250D01*
X4654550Y10519867D01*
X4642713Y10529112D01*
X4629861Y10536936D01*
X4625340Y10538917D01*
G37*
G36*
X8455812Y10493654D02*
G01*
X8499957Y10493654D01*
X8499957Y10509300D01*
X8499348Y10515752D01*
X8497620Y10521442D01*
X8494776Y10526725D01*
X8491016Y10531348D01*
X8486394Y10535107D01*
X8481110Y10537952D01*
X8475421Y10539679D01*
X8468969Y10540288D01*
X8455812Y10540288D01*
G37*
G36*
X10435031Y10656773D02*
G01*
X10449509Y10656773D01*
X10463885Y10658652D01*
X10477906Y10662310D01*
X10491317Y10667746D01*
X10503916Y10674858D01*
X10515549Y10683544D01*
X10525963Y10693603D01*
X10534954Y10704931D01*
X10542473Y10717326D01*
X10548366Y10730585D01*
X10552480Y10744454D01*
X10554766Y10758728D01*
X10555224Y10773206D01*
X10553852Y10787634D01*
X10550652Y10801756D01*
X10545622Y10815370D01*
X10538917Y10828172D01*
X10530636Y10840059D01*
X10520883Y10850778D01*
X10509859Y10860176D01*
X10497718Y10868101D01*
X10484662Y10874400D01*
X10470946Y10878921D01*
X10456722Y10881715D01*
X10442244Y10882630D01*
X10427817Y10881715D01*
X10413593Y10878921D01*
X10399826Y10874400D01*
X10386822Y10868101D01*
X10374680Y10860176D01*
X10363606Y10850778D01*
X10353903Y10840059D01*
X10345623Y10828172D01*
X10338917Y10815370D01*
X10333888Y10801756D01*
X10330688Y10787634D01*
X10329265Y10773206D01*
X10329773Y10758728D01*
X10332059Y10744454D01*
X10336174Y10730585D01*
X10342067Y10717326D01*
X10349534Y10704931D01*
X10358577Y10693603D01*
X10368991Y10683544D01*
X10380624Y10674858D01*
X10393222Y10667746D01*
X10406634Y10662310D01*
X10420654Y10658652D01*
G37*
G36*
X5588609Y10834573D02*
G01*
X5596991Y10834573D01*
X5596991Y10874502D01*
X5530494Y10874502D01*
X5531459Y10871708D01*
X5536336Y10862716D01*
X5542584Y10854639D01*
X5550154Y10847679D01*
X5558688Y10842091D01*
X5568086Y10837976D01*
X5577992Y10835487D01*
G37*
G36*
X5702909Y10834573D02*
G01*
X5711291Y10834573D01*
X5721908Y10835487D01*
X5731814Y10837976D01*
X5741212Y10842091D01*
X5749747Y10847679D01*
X5757316Y10854639D01*
X5763564Y10862716D01*
X5768441Y10871708D01*
X5769406Y10874502D01*
X5702909Y10874502D01*
G37*
G36*
X10435031Y10910773D02*
G01*
X10449509Y10910773D01*
X10463885Y10912652D01*
X10477906Y10916310D01*
X10491317Y10921746D01*
X10503916Y10928858D01*
X10515549Y10937544D01*
X10525963Y10947603D01*
X10534954Y10958931D01*
X10542473Y10971326D01*
X10548366Y10984585D01*
X10552480Y10998454D01*
X10554766Y11012728D01*
X10555224Y11027206D01*
X10553852Y11041634D01*
X10550652Y11055756D01*
X10545622Y11069370D01*
X10538917Y11082172D01*
X10530636Y11094059D01*
X10520883Y11104778D01*
X10509859Y11114176D01*
X10497718Y11122101D01*
X10484662Y11128400D01*
X10470946Y11132921D01*
X10456722Y11135715D01*
X10442244Y11136630D01*
X10427817Y11135715D01*
X10413593Y11132921D01*
X10399826Y11128400D01*
X10386822Y11122101D01*
X10374680Y11114176D01*
X10363606Y11104778D01*
X10353903Y11094059D01*
X10345623Y11082172D01*
X10338917Y11069370D01*
X10333888Y11055756D01*
X10330688Y11041634D01*
X10329265Y11027206D01*
X10329773Y11012728D01*
X10332059Y10998454D01*
X10336174Y10984585D01*
X10342067Y10971326D01*
X10349534Y10958931D01*
X10358577Y10947603D01*
X10368991Y10937544D01*
X10380624Y10928858D01*
X10393222Y10921746D01*
X10406634Y10916310D01*
X10420654Y10912652D01*
G37*
G36*
X5530494Y10918698D02*
G01*
X5596991Y10918698D01*
X5596991Y10958626D01*
X5588609Y10958626D01*
X5577992Y10957712D01*
X5568086Y10955223D01*
X5558688Y10951108D01*
X5550154Y10945520D01*
X5542584Y10938560D01*
X5536336Y10930483D01*
X5531459Y10921492D01*
G37*
G36*
X5702909Y10918698D02*
G01*
X5769406Y10918698D01*
X5768441Y10921492D01*
X5763564Y10930483D01*
X5757316Y10938560D01*
X5749747Y10945520D01*
X5741212Y10951108D01*
X5731814Y10955223D01*
X5721908Y10957712D01*
X5711291Y10958626D01*
X5702909Y10958626D01*
G37*
G36*
X1526844Y11051540D02*
G01*
X1541881Y11052454D01*
X1556664Y11055146D01*
X1570990Y11059617D01*
X1584706Y11065764D01*
X1597558Y11073587D01*
X1609394Y11082832D01*
X1620012Y11093450D01*
X1629308Y11105286D01*
X1637080Y11118138D01*
X1643227Y11131854D01*
X1647698Y11146231D01*
X1650441Y11161014D01*
X1651355Y11176000D01*
X1650441Y11190986D01*
X1647698Y11205768D01*
X1643227Y11220145D01*
X1637080Y11233861D01*
X1629308Y11246713D01*
X1620012Y11258550D01*
X1609394Y11269167D01*
X1597558Y11278412D01*
X1584706Y11286236D01*
X1570990Y11292382D01*
X1556664Y11296853D01*
X1541881Y11299545D01*
X1526844Y11300460D01*
X1511858Y11299545D01*
X1497076Y11296853D01*
X1482750Y11292382D01*
X1469034Y11286236D01*
X1456182Y11278412D01*
X1444345Y11269167D01*
X1433677Y11258550D01*
X1424432Y11246713D01*
X1416659Y11233861D01*
X1410462Y11220145D01*
X1405991Y11205768D01*
X1403299Y11190986D01*
X1402384Y11176000D01*
X1403299Y11161014D01*
X1405991Y11146231D01*
X1410462Y11131854D01*
X1416659Y11118138D01*
X1424432Y11105286D01*
X1433677Y11093450D01*
X1444345Y11082832D01*
X1456182Y11073587D01*
X1469034Y11065764D01*
X1482750Y11059617D01*
X1497076Y11055146D01*
X1511858Y11052454D01*
G37*
G36*
X3050844Y11051540D02*
G01*
X3065881Y11052454D01*
X3080664Y11055146D01*
X3094990Y11059617D01*
X3108706Y11065764D01*
X3121558Y11073587D01*
X3133394Y11082832D01*
X3144012Y11093450D01*
X3153308Y11105286D01*
X3161080Y11118138D01*
X3167227Y11131854D01*
X3171698Y11146231D01*
X3174441Y11161014D01*
X3175355Y11176000D01*
X3175000Y11182959D01*
X3175355Y11188700D01*
X3174441Y11203686D01*
X3171698Y11218468D01*
X3167227Y11232845D01*
X3161080Y11246561D01*
X3153308Y11259413D01*
X3144012Y11271250D01*
X3133394Y11281867D01*
X3121558Y11291112D01*
X3108706Y11298936D01*
X3094990Y11305082D01*
X3080664Y11309553D01*
X3065881Y11312245D01*
X3050844Y11313160D01*
X3035858Y11312245D01*
X3021076Y11309553D01*
X3006750Y11305082D01*
X2993034Y11298936D01*
X2980182Y11291112D01*
X2968345Y11281867D01*
X2957677Y11271250D01*
X2948432Y11259413D01*
X2940659Y11246561D01*
X2934462Y11232845D01*
X2929991Y11218468D01*
X2927299Y11203686D01*
X2926384Y11188700D01*
X2926740Y11181740D01*
X2926384Y11176000D01*
X2927299Y11161014D01*
X2929991Y11146231D01*
X2934462Y11131854D01*
X2940659Y11118138D01*
X2948432Y11105286D01*
X2957677Y11093450D01*
X2968345Y11082832D01*
X2980182Y11073587D01*
X2993034Y11065764D01*
X3006750Y11059617D01*
X3021076Y11055146D01*
X3035858Y11052454D01*
G37*
G36*
X4628235Y11076432D02*
G01*
X4632756Y11078464D01*
X4645609Y11086236D01*
X4657445Y11095482D01*
X4668062Y11106150D01*
X4677359Y11117935D01*
X4685131Y11130838D01*
X4687163Y11135309D01*
X4628235Y11135309D01*
G37*
G36*
X4521555Y11076432D02*
G01*
X4521555Y11135309D01*
X4462627Y11135309D01*
X4464659Y11130838D01*
X4472432Y11117935D01*
X4481728Y11106150D01*
X4492345Y11095482D01*
X4504182Y11086236D01*
X4517034Y11078464D01*
G37*
G36*
X4462627Y11242040D02*
G01*
X4521555Y11242040D01*
X4521555Y11300917D01*
X4517034Y11298885D01*
X4504182Y11291112D01*
X4492345Y11281867D01*
X4481728Y11271250D01*
X4472432Y11259413D01*
X4464659Y11246510D01*
G37*
G36*
X4628235Y11242040D02*
G01*
X4687163Y11242040D01*
X4685131Y11246510D01*
X4677359Y11259413D01*
X4668062Y11271250D01*
X4657445Y11281867D01*
X4645609Y11291112D01*
X4632756Y11298885D01*
X4628235Y11300917D01*
G37*
G36*
X11991644Y11292840D02*
G01*
X12006681Y11293754D01*
X12021464Y11296446D01*
X12035790Y11300917D01*
X12049506Y11307064D01*
X12062358Y11314887D01*
X12074194Y11324132D01*
X12084812Y11334750D01*
X12094108Y11346586D01*
X12101880Y11359438D01*
X12108027Y11373154D01*
X12112498Y11387531D01*
X12115241Y11402314D01*
X12116155Y11417300D01*
X12115241Y11432286D01*
X12112498Y11447068D01*
X12108027Y11461445D01*
X12101880Y11475161D01*
X12094108Y11488013D01*
X12084812Y11499850D01*
X12074194Y11510467D01*
X12062358Y11519712D01*
X12049506Y11527536D01*
X12035790Y11533682D01*
X12021464Y11538153D01*
X12006681Y11540845D01*
X11991644Y11541760D01*
X11976658Y11540845D01*
X11961876Y11538153D01*
X11947550Y11533682D01*
X11933834Y11527536D01*
X11920982Y11519712D01*
X11909145Y11510467D01*
X11898477Y11499850D01*
X11889232Y11488013D01*
X11881459Y11475161D01*
X11875262Y11461445D01*
X11870791Y11447068D01*
X11868099Y11432286D01*
X11867184Y11417300D01*
X11868099Y11402314D01*
X11870791Y11387531D01*
X11875262Y11373154D01*
X11881459Y11359438D01*
X11889232Y11346586D01*
X11898477Y11334750D01*
X11909145Y11324132D01*
X11920982Y11314887D01*
X11933834Y11307064D01*
X11947550Y11300917D01*
X11961876Y11296446D01*
X11976658Y11293754D01*
G37*
G36*
X10467644Y11292840D02*
G01*
X10482681Y11293754D01*
X10497464Y11296446D01*
X10511790Y11300917D01*
X10525506Y11307064D01*
X10538358Y11314887D01*
X10550194Y11324132D01*
X10560812Y11334750D01*
X10570108Y11346586D01*
X10577880Y11359438D01*
X10584027Y11373154D01*
X10588498Y11387531D01*
X10591241Y11402314D01*
X10592155Y11417300D01*
X10591241Y11432286D01*
X10588498Y11447068D01*
X10584027Y11461445D01*
X10577880Y11475161D01*
X10570108Y11488013D01*
X10560812Y11499850D01*
X10550194Y11510467D01*
X10538358Y11519712D01*
X10525506Y11527536D01*
X10511790Y11533682D01*
X10497464Y11538153D01*
X10482681Y11540845D01*
X10467644Y11541760D01*
X10452658Y11540845D01*
X10437876Y11538153D01*
X10423550Y11533682D01*
X10409834Y11527536D01*
X10396982Y11519712D01*
X10385145Y11510467D01*
X10374477Y11499850D01*
X10365232Y11488013D01*
X10357459Y11475161D01*
X10351262Y11461445D01*
X10346791Y11447068D01*
X10344099Y11432286D01*
X10343184Y11417300D01*
X10344099Y11402314D01*
X10346791Y11387531D01*
X10351262Y11373154D01*
X10357459Y11359438D01*
X10365232Y11346586D01*
X10374477Y11334750D01*
X10385145Y11324132D01*
X10396982Y11314887D01*
X10409834Y11307064D01*
X10423550Y11300917D01*
X10437876Y11296446D01*
X10452658Y11293754D01*
G37*
G36*
X5644794Y11913920D02*
G01*
X5658205Y11913920D01*
X5671515Y11915749D01*
X5684469Y11919254D01*
X5696813Y11924538D01*
X5708345Y11931345D01*
X5718911Y11939676D01*
X5728258Y11949328D01*
X5736183Y11960148D01*
X5742635Y11971883D01*
X5747461Y11984431D01*
X5750610Y11997486D01*
X5751931Y12010847D01*
X5751474Y12024258D01*
X5749239Y12037517D01*
X5745276Y12050318D01*
X5739638Y12062510D01*
X5732373Y12073788D01*
X5723737Y12084050D01*
X5713780Y12093041D01*
X5702706Y12100661D01*
X5690717Y12106706D01*
X5678068Y12111126D01*
X5664911Y12113768D01*
X5651500Y12114682D01*
X5638088Y12113768D01*
X5624931Y12111126D01*
X5612282Y12106706D01*
X5600293Y12100661D01*
X5589219Y12093041D01*
X5579262Y12084050D01*
X5570626Y12073788D01*
X5563362Y12062510D01*
X5557723Y12050318D01*
X5553760Y12037517D01*
X5551525Y12024258D01*
X5551068Y12010847D01*
X5552440Y11997486D01*
X5555538Y11984431D01*
X5560364Y11971883D01*
X5566816Y11960148D01*
X5574741Y11949328D01*
X5584088Y11939676D01*
X5594654Y11931345D01*
X5606186Y11924538D01*
X5618530Y11919254D01*
X5631484Y11915749D01*
G37*
G36*
X1882393Y12216485D02*
G01*
X1895551Y12216485D01*
X1902002Y12217146D01*
X1907743Y12218873D01*
X1912975Y12221667D01*
X1917598Y12225477D01*
X1921408Y12230100D01*
X1924202Y12235332D01*
X1925929Y12241072D01*
X1926589Y12247524D01*
X1926589Y12285675D01*
X1882393Y12285675D01*
G37*
G36*
X1816557Y12216485D02*
G01*
X1829714Y12216485D01*
X1829714Y12285675D01*
X1785569Y12285675D01*
X1785569Y12247524D01*
X1786178Y12241072D01*
X1787906Y12235332D01*
X1790750Y12230100D01*
X1794510Y12225477D01*
X1799132Y12221667D01*
X1804416Y12218873D01*
X1810105Y12217146D01*
G37*
G36*
X7150100Y12270740D02*
G01*
X7165086Y12271654D01*
X7179868Y12274346D01*
X7194245Y12278817D01*
X7207961Y12284964D01*
X7220813Y12292787D01*
X7232650Y12302032D01*
X7243267Y12312650D01*
X7252512Y12324486D01*
X7260336Y12337338D01*
X7266482Y12351054D01*
X7270953Y12365431D01*
X7273645Y12380214D01*
X7274559Y12395200D01*
X7273645Y12410186D01*
X7270953Y12424968D01*
X7266482Y12439345D01*
X7260336Y12453061D01*
X7252512Y12465913D01*
X7243267Y12477750D01*
X7232650Y12488367D01*
X7220813Y12497612D01*
X7207961Y12505436D01*
X7194245Y12511582D01*
X7179868Y12516053D01*
X7165086Y12518745D01*
X7150100Y12519660D01*
X7135114Y12518745D01*
X7120331Y12516053D01*
X7105954Y12511582D01*
X7092238Y12505436D01*
X7079386Y12497612D01*
X7067550Y12488367D01*
X7056932Y12477750D01*
X7047687Y12465913D01*
X7039864Y12453061D01*
X7033717Y12439345D01*
X7029246Y12424968D01*
X7026554Y12410186D01*
X7025640Y12395200D01*
X7026554Y12380214D01*
X7029246Y12365431D01*
X7033717Y12351054D01*
X7039864Y12337338D01*
X7047687Y12324486D01*
X7056932Y12312650D01*
X7067550Y12302032D01*
X7079386Y12292787D01*
X7092238Y12284964D01*
X7105954Y12278817D01*
X7120331Y12274346D01*
X7135114Y12271654D01*
G37*
G36*
X5626100Y12270740D02*
G01*
X5641086Y12271654D01*
X5655868Y12274346D01*
X5670245Y12278817D01*
X5683961Y12284964D01*
X5696813Y12292787D01*
X5708650Y12302032D01*
X5719267Y12312650D01*
X5728512Y12324486D01*
X5736336Y12337338D01*
X5742482Y12351054D01*
X5746953Y12365431D01*
X5749645Y12380214D01*
X5750560Y12395200D01*
X5749645Y12410186D01*
X5746953Y12424968D01*
X5742482Y12439345D01*
X5736336Y12453061D01*
X5728512Y12465913D01*
X5719267Y12477750D01*
X5708650Y12488367D01*
X5696813Y12497612D01*
X5683961Y12505436D01*
X5670245Y12511582D01*
X5655868Y12516053D01*
X5641086Y12518745D01*
X5626100Y12519660D01*
X5611114Y12518745D01*
X5596331Y12516053D01*
X5581954Y12511582D01*
X5568238Y12505436D01*
X5555386Y12497612D01*
X5543550Y12488367D01*
X5532932Y12477750D01*
X5523687Y12465913D01*
X5515864Y12453061D01*
X5509717Y12439345D01*
X5505246Y12424968D01*
X5502554Y12410186D01*
X5501640Y12395200D01*
X5502554Y12380214D01*
X5505246Y12365431D01*
X5509717Y12351054D01*
X5515864Y12337338D01*
X5523687Y12324486D01*
X5532932Y12312650D01*
X5543550Y12302032D01*
X5555386Y12292787D01*
X5568238Y12284964D01*
X5581954Y12278817D01*
X5596331Y12274346D01*
X5611114Y12271654D01*
G37*
G36*
X1882393Y12388342D02*
G01*
X1926589Y12388342D01*
X1926589Y12426492D01*
X1925929Y12432944D01*
X1924202Y12438684D01*
X1921408Y12443917D01*
X1917598Y12448540D01*
X1912975Y12452350D01*
X1907743Y12455144D01*
X1902002Y12456871D01*
X1895551Y12457531D01*
X1882393Y12457531D01*
G37*
G36*
X1785569Y12388342D02*
G01*
X1829714Y12388342D01*
X1829714Y12457531D01*
X1816557Y12457531D01*
X1810105Y12456871D01*
X1804416Y12455144D01*
X1799132Y12452350D01*
X1794510Y12448540D01*
X1790750Y12443917D01*
X1787906Y12438684D01*
X1786178Y12432944D01*
X1785569Y12426492D01*
G37*
G36*
X8170011Y13202970D02*
G01*
X8185607Y13204342D01*
X8200898Y13207593D01*
X8215731Y13212572D01*
X8229853Y13219328D01*
X8243112Y13227659D01*
X8255253Y13237514D01*
X8266175Y13248792D01*
X8275675Y13261187D01*
X8283600Y13274700D01*
X8289899Y13289026D01*
X8294471Y13303961D01*
X8297265Y13319353D01*
X8298180Y13335000D01*
X8297265Y13350646D01*
X8294471Y13366038D01*
X8289899Y13380974D01*
X8283600Y13395299D01*
X8275675Y13408812D01*
X8266175Y13421207D01*
X8255253Y13432485D01*
X8243112Y13442340D01*
X8229853Y13450671D01*
X8215731Y13457428D01*
X8200898Y13462406D01*
X8185607Y13465657D01*
X8170011Y13467029D01*
X8154365Y13466572D01*
X8138871Y13464235D01*
X8123783Y13460120D01*
X8109305Y13454227D01*
X8095589Y13446709D01*
X8082889Y13437565D01*
X8071307Y13426998D01*
X8061096Y13415162D01*
X8052358Y13402157D01*
X8045196Y13388238D01*
X8039760Y13373557D01*
X8036102Y13358368D01*
X8034223Y13342823D01*
X8034223Y13327176D01*
X8036102Y13311632D01*
X8039760Y13296442D01*
X8045196Y13281761D01*
X8052358Y13267842D01*
X8061096Y13254837D01*
X8071307Y13243001D01*
X8082889Y13232434D01*
X8095589Y13223290D01*
X8109305Y13215772D01*
X8123783Y13209879D01*
X8138871Y13205764D01*
X8154365Y13203428D01*
G37*
G36*
X4804511Y13202970D02*
G01*
X4820107Y13204342D01*
X4835398Y13207593D01*
X4850231Y13212572D01*
X4864354Y13219328D01*
X4877612Y13227659D01*
X4889754Y13237514D01*
X4900676Y13248792D01*
X4910175Y13261187D01*
X4918100Y13274700D01*
X4924399Y13289026D01*
X4928971Y13303961D01*
X4931765Y13319353D01*
X4932680Y13335000D01*
X4931765Y13350646D01*
X4928971Y13366038D01*
X4924399Y13380974D01*
X4918100Y13395299D01*
X4910175Y13408812D01*
X4900676Y13421207D01*
X4889754Y13432485D01*
X4877612Y13442340D01*
X4864354Y13450671D01*
X4850231Y13457428D01*
X4835398Y13462406D01*
X4820107Y13465657D01*
X4804511Y13467029D01*
X4788865Y13466572D01*
X4773371Y13464235D01*
X4758283Y13460120D01*
X4743805Y13454227D01*
X4730089Y13446709D01*
X4717389Y13437565D01*
X4705807Y13426998D01*
X4695596Y13415162D01*
X4686858Y13402157D01*
X4679696Y13388238D01*
X4674260Y13373557D01*
X4670602Y13358368D01*
X4668723Y13342823D01*
X4668723Y13327176D01*
X4670602Y13311632D01*
X4674260Y13296442D01*
X4679696Y13281761D01*
X4686858Y13267842D01*
X4695596Y13254837D01*
X4705807Y13243001D01*
X4717389Y13232434D01*
X4730089Y13223290D01*
X4743805Y13215772D01*
X4758283Y13209879D01*
X4773371Y13205764D01*
X4788865Y13203428D01*
G37*

%LPD*%
D10*
X5650892Y11567576D02*
G01*
X5661469Y11557000D01*
X6502400Y11557000D01*
X6454470Y11509070D01*
X6454470Y10490200D01*
X5651500Y11760200D02*
G01*
X5649975Y11277600D01*
X8953500Y9906000D02*
G01*
X8966200Y9918700D01*
X9309100Y9918700D01*
X8289467Y10464800D02*
G01*
X8331200Y10423067D01*
X8331200Y9906000D01*
X8953500Y9906000D01*
X8289467Y10464800D02*
G01*
X8264067Y10490200D01*
X7978470Y10490200D01*
D11*
X5651500Y11137900D02*
G01*
X5664200Y11125200D01*
X5918200Y11125200D01*
X5892800Y11099800D01*
X5892800Y9613900D01*
X5854700Y9575800D01*
X5600700Y9575800D01*
X3048000Y10439400D02*
G01*
X3048000Y9715500D01*
X5599150Y9715500D01*
D12*
G01*
X8429472Y10464800D03*
G01*
X8289467Y10464800D03*
D13*
G01*
X1856079Y12337008D03*
D14*
G01*
X5649950Y10896600D03*
G01*
X9323120Y9779000D03*
G01*
X5599150Y9461500D03*
D15*
G01*
X5651500Y12014200D03*
G01*
X5651500Y11760200D03*
D16*
G01*
X5245100Y8775700D03*
G01*
X5245100Y9029700D03*
G01*
X10442270Y11023600D03*
G01*
X10442270Y10769600D03*
D17*
G01*
X1526870Y11176000D03*
G01*
X3050870Y11176000D03*
G01*
X3050870Y11188700D03*
D18*
G01*
X4574895Y11188674D03*
D17*
G01*
X1524000Y10439400D03*
G01*
X3048000Y10439400D03*
G01*
X3048000Y10426700D03*
G01*
X4572000Y10426700D03*
G01*
X6454470Y10490200D03*
G01*
X7978470Y10490200D03*
G01*
X7366000Y8128000D03*
G01*
X8890000Y8128000D03*
G01*
X9144000Y8128000D03*
G01*
X10668000Y8128000D03*
G01*
X5245100Y8458200D03*
G01*
X6769100Y8458200D03*
G01*
X5626100Y12395200D03*
G01*
X7150100Y12395200D03*
G01*
X10467670Y11417300D03*
G01*
X11991670Y11417300D03*
D19*
G01*
X5599150Y9715500D03*
G01*
X5649975Y11277600D03*
G01*
X5651500Y11137900D03*
G01*
X5600700Y9575800D03*
G01*
X9309100Y9918700D03*
M02*
